<svg xmlns="http://www.w3.org/2000/svg" width="512" height="512" viewBox="0 0 512 512">
<g>
<path d="M 2.45 349.55 C0.91,348.00 0.00,345.95 0.00,344.00 C0.00,342.05 0.91,340.00 2.45,338.45 L 4.91 336.00 L 84.42 336.00 L 163.93 336.00 L 161.07 331.75 C159.49,329.41 157.40,325.81 156.42,323.75 L 154.63 320.00 L 147.92 320.00 L 141.22 320.00 L 128.20 309.55 C121.04,303.80 114.46,298.07 113.59,296.82 C112.20,294.84 112.00,289.41 112.00,253.73 L 112.00 212.91 L 114.45 210.45 C116.48,208.43 117.90,208.00 122.52,208.00 L 128.13 208.00 L 125.88 204.00 L 123.63 200.00 L 116.27 200.00 C109.79,200.00 108.62,199.71 106.45,197.55 C104.07,195.16 104.00,194.69 104.00,180.00 C104.00,165.31 104.07,164.84 106.45,162.45 C108.89,160.02 109.06,160.00 128.00,160.00 C146.94,160.00 147.11,160.02 149.55,162.45 C151.93,164.84 152.00,165.32 152.00,179.84 C152.00,196.49 151.32,198.54 145.36,199.83 L 142.26 200.50 L 144.65 204.25 C147.88,209.34 150.34,209.14 160.61,202.93 C196.39,181.32 242.28,168.00 280.95,168.00 C318.88,168.00 357.60,182.85 387.86,209.00 L 396.23 216.23 L 413.36 217.52 C422.79,218.22 438.15,219.33 447.50,219.98 C457.89,220.70 467.07,221.90 471.12,223.07 C490.47,228.65 504.00,246.99 504.00,267.64 C504.00,270.91 504.39,272.00 505.55,272.00 C506.40,272.00 508.20,273.10 509.55,274.45 C511.98,276.89 512.00,277.06 512.00,296.00 L 512.00 315.10 L 509.35 317.55 C506.74,319.97 506.48,320.00 487.92,320.00 C470.34,320.00 469.10,320.12 468.53,321.90 C468.20,322.95 466.15,326.55 463.99,329.90 L 460.04 336.00 L 483.57 336.00 L 507.09 336.00 L 509.55 338.45 C512.79,341.70 512.79,346.30 509.55,349.55 L 507.09 352.00 L 256.00 352.00 L 4.91 352.00 L 2.45 349.55 ZM 215.05 331.89 C221.82,328.29 224.88,325.10 228.76,317.61 C230.99,313.29 231.41,311.18 231.45,304.00 C231.50,296.18 231.23,295.00 228.08,289.20 C224.28,282.18 221.13,279.15 213.61,275.24 C209.25,272.97 207.25,272.58 200.00,272.58 C192.75,272.58 190.75,272.97 186.39,275.24 C178.86,279.15 175.72,282.18 171.94,289.20 C168.82,294.97 168.54,296.22 168.56,304.00 C168.58,311.22 168.98,313.27 171.24,317.61 C175.01,324.88 178.08,328.18 184.11,331.46 C191.16,335.30 194.26,335.99 202.25,335.52 C207.43,335.21 210.41,334.36 215.05,331.89 ZM 385.23 332.16 C383.70,330.04 381.60,326.44 380.57,324.16 L 378.70 320.00 L 312.00 320.00 L 245.30 320.00 L 243.43 324.16 C242.40,326.44 240.30,330.04 238.77,332.16 L 235.99 336.00 L 312.00 336.00 L 388.01 336.00 L 385.23 332.16 ZM 437.23 332.75 C448.78,327.46 455.49,316.91 455.49,304.00 C455.49,291.34 449.27,281.29 437.72,275.29 C433.26,272.98 431.26,272.58 424.00,272.55 C416.98,272.53 414.63,272.95 410.53,274.96 C392.01,284.03 386.34,307.30 398.73,323.40 C402.54,328.36 410.39,333.57 416.33,335.10 C421.81,336.51 431.37,335.43 437.23,332.75 ZM 152.75 296.83 C155.96,276.10 172.66,259.68 193.59,256.67 C219.12,252.99 243.27,271.13 247.27,297.00 L 248.36 304.00 L 311.95 304.00 L 375.55 304.00 L 376.75 296.44 C379.93,276.49 396.23,260.18 416.47,256.71 C441.72,252.39 466.79,270.65 471.14,296.54 L 472.39 304.00 L 484.20 304.00 L 496.00 304.00 L 496.00 296.00 L 496.00 288.00 L 492.19 288.00 C488.09,288.00 484.65,285.61 483.49,281.96 C482.70,279.47 484.59,274.37 486.59,273.60 C488.48,272.88 488.44,264.85 486.51,258.35 C483.69,248.86 475.15,240.40 466.02,238.04 C464.08,237.55 446.75,235.98 427.49,234.57 C395.49,232.22 387.25,232.00 331.40,232.00 L 270.31 232.00 L 235.02 216.47 L 199.73 200.93 L 187.62 206.79 C180.95,210.02 171.68,215.09 167.00,218.07 L 158.50 223.49 L 143.25 223.82 L 128.00 224.14 L 128.00 256.48 L 128.00 288.83 L 137.25 296.36 C143.25,301.25 147.40,303.91 149.07,303.95 C151.50,304.00 151.71,303.60 152.75,296.83 ZM 363.47 210.42 C353.96,203.76 336.57,195.08 325.50,191.47 C315.07,188.06 300.79,185.28 289.25,184.41 L 280.00 183.71 L 280.00 199.86 L 280.00 216.00 L 325.72 216.00 L 371.45 216.00 L 363.47 210.42 ZM 264.00 198.40 L 264.00 184.80 L 257.75 185.50 C250.09,186.36 234.81,189.42 227.34,191.59 L 221.80 193.20 L 242.65 202.49 C254.12,207.60 263.61,211.83 263.75,211.89 C263.89,211.95 264.00,205.88 264.00,198.40 ZM 136.00 180.00 L 136.00 176.00 L 128.00 176.00 L 120.00 176.00 L 120.00 180.00 L 120.00 184.00 L 128.00 184.00 L 136.00 184.00 L 136.00 180.00 ZM 18.45 317.55 C16.91,316.00 16.00,313.95 16.00,312.00 C16.00,310.05 16.91,308.00 18.45,306.45 L 20.91 304.00 L 52.00 304.00 L 83.09 304.00 L 85.55 306.45 C88.79,309.70 88.79,314.30 85.55,317.55 L 83.09 320.00 L 52.00 320.00 L 20.91 320.00 L 18.45 317.55 ZM 2.45 285.55 C0.91,284.00 0.00,281.95 0.00,280.00 C0.00,278.05 0.91,276.00 2.45,274.45 L 4.91 272.00 L 52.00 272.00 L 99.09 272.00 L 101.55 274.45 C104.79,277.70 104.79,282.30 101.55,285.55 L 99.09 288.00 L 52.00 288.00 L 4.91 288.00 L 2.45 285.55 ZM 18.45 253.55 C16.91,252.00 16.00,249.95 16.00,248.00 C16.00,246.05 16.91,244.00 18.45,242.45 C20.59,240.32 21.82,240.00 27.81,240.00 C33.75,240.00 35.08,240.34 37.35,242.45 C40.81,245.65 40.89,250.20 37.55,253.55 C35.40,255.69 34.20,256.00 28.00,256.00 C21.80,256.00 20.60,255.69 18.45,253.55 ZM 50.45 253.55 C48.91,252.00 48.00,249.95 48.00,248.00 C48.00,246.05 48.91,244.00 50.45,242.45 L 52.91 240.00 L 76.00 240.00 L 99.09 240.00 L 101.55 242.45 C104.79,245.70 104.79,250.30 101.55,253.55 L 99.09 256.00 L 76.00 256.00 L 52.91 256.00 L 50.45 253.55 ZM 2.45 221.55 C0.91,220.00 0.00,217.95 0.00,216.00 C0.00,214.05 0.91,212.00 2.45,210.45 L 4.91 208.00 L 31.81 208.00 L 58.71 208.00 L 61.35 210.45 C64.81,213.65 64.89,218.20 61.55,221.55 L 59.09 224.00 L 32.00 224.00 L 4.91 224.00 L 2.45 221.55 ZM 192.00 326.69 C187.09,325.15 178.72,316.48 177.22,311.38 C174.45,302.01 176.40,294.53 183.47,287.47 C193.70,277.23 207.82,277.45 217.30,287.99 C226.60,298.33 226.31,310.76 216.53,320.53 C209.50,327.57 201.31,329.63 192.00,326.69 ZM 205.55 309.55 C210.51,304.59 206.99,296.00 200.00,296.00 C192.88,296.00 189.44,304.72 194.65,309.55 C198.09,312.74 202.36,312.73 205.55,309.55 ZM 416.01 326.68 C410.95,325.07 402.44,316.40 401.10,311.50 C398.58,302.25 400.37,294.66 406.66,287.94 C415.73,278.24 429.19,277.34 439.04,285.77 C444.98,290.85 447.43,296.16 447.43,304.00 C447.43,320.57 431.94,331.76 416.01,326.68 ZM 428.09 310.72 C432.51,307.32 432.82,301.78 428.80,298.03 C424.09,293.64 416.00,297.41 416.00,304.00 C416.00,309.98 423.57,314.19 428.09,310.72 Z" fill="rgba(0,0,0,1)" data-index="0" style="opacity: 1; visibility: visible; fill: rgb(255, 255, 255);"></path>
</g>
</svg>